<?xml version="1.0" encoding="UTF-8"?>
<svg width="24" height="25" viewBox="0 0 24 25" fill="none" xmlns="http://www.w3.org/2000/svg">
<path opacity="0.4" fill-rule="evenodd" clip-rule="evenodd" d="M12.0812 9.55922C11.8712 9.06922 11.5812 8.62922 11.2312 8.24922C11.1212 8.12922 11.0012 8.00922 10.8812 7.89922C10.6312 7.66922 10.3512 7.46922 10.0512 7.30922C9.53121 7.00922 8.95121 6.81922 8.33121 6.73922C8.14121 6.70922 7.93121 6.69922 7.73121 6.69922C7.42121 6.69922 7.12121 6.72922 6.83121 6.78922C4.65121 7.20922 2.99121 9.13922 2.99121 11.4392C2.99121 13.1386 3.90487 14.6981 5.3631 15.5417C5.45931 15.5974 5.52121 15.6987 5.52121 15.8099V19.7392C5.52121 20.9592 6.51121 21.9492 7.73121 21.9492C8.79905 21.9492 9.67853 21.204 9.89537 20.2175C9.93271 20.0476 9.79338 19.8992 9.61942 19.8992H8.54121C8.26276 19.8992 8.0304 19.7056 7.95922 19.4512C7.95333 19.4301 7.95121 19.4082 7.95121 19.3863V19.2122C7.95121 19.1903 7.95333 19.1683 7.95922 19.1473C8.0304 18.8928 8.26276 18.6992 8.54121 18.6992H9.65121C9.8169 18.6992 9.95121 18.5649 9.95121 18.3992V17.9792C9.95121 17.8135 9.8169 17.6792 9.65121 17.6792H8.54121C8.26276 17.6792 8.0304 17.4856 7.95922 17.2312C7.95333 17.2101 7.95121 17.1882 7.95121 17.1663V16.9922C7.95121 16.9703 7.95333 16.9483 7.95922 16.9273C8.0304 16.6728 8.26276 16.4792 8.54121 16.4792H9.65121C9.8169 16.4792 9.95121 16.3449 9.95121 16.1792V15.8079C9.95121 15.6978 10.0119 15.5972 10.107 15.5417C10.2939 15.4328 10.4767 15.3102 10.6412 15.1692C10.9112 14.9692 11.1512 14.7392 11.3712 14.4792C11.4812 14.3392 11.5912 14.1992 11.6812 14.0492C11.9912 13.5892 12.2212 13.0592 12.3512 12.5092C12.4312 12.1592 12.4712 11.8092 12.4712 11.4392C12.4712 10.7692 12.3312 10.1392 12.0812 9.55922Z" fill="#000000"></path>
<path d="M17.0909 8.34922L20.1809 12.4592C21.5509 14.2892 21.1809 16.8792 19.3609 18.2392C18.6209 18.7992 17.7509 19.0692 16.8809 19.0692C15.6209 19.0692 14.3809 18.4992 13.5809 17.4192L12.1311 15.4891C12.0441 15.3733 12.0534 15.2128 12.1462 15.1016C12.2038 15.0326 12.2587 14.9623 12.3109 14.8892C12.6409 14.4592 12.9109 13.9692 13.1109 13.4592C13.3409 12.8192 13.4709 12.1392 13.4709 11.4392C13.4709 10.5292 13.2609 9.66922 12.8709 8.89922C12.6609 8.44922 12.3709 8.02922 12.0409 7.64922C12.0086 7.61402 11.9755 7.57797 11.9415 7.54155C11.8169 7.40802 11.8481 7.18707 12.0137 7.11004C12.1106 7.06496 12.1709 6.97015 12.1709 6.86325V6.12922C12.1709 6.09356 12.1709 6.05282 12.1636 6.01424C12.1619 6.00496 12.1599 5.9957 12.158 5.98643C12.1535 5.9652 12.1491 5.94392 12.147 5.9224C12.0549 4.95474 11.2448 4.19922 10.2409 4.19922C9.41901 4.19922 8.71683 4.73394 8.44808 5.46828C8.39362 5.61708 8.24863 5.72084 8.09054 5.71023C7.9726 5.70231 7.8533 5.69922 7.73089 5.69922C7.56955 5.69922 7.41109 5.705 7.25398 5.71969C7.05258 5.7385 6.87123 5.57419 6.91488 5.37668C7.25352 3.84428 8.61998 2.69922 10.2409 2.69922C11.9909 2.69922 13.4409 4.01922 13.6409 5.70922C13.6609 5.84922 13.6709 5.98922 13.6709 6.12922V6.59866C13.6709 6.65972 13.7198 6.69922 13.7809 6.69922C15.1009 6.69922 16.3009 7.30922 17.0909 8.34922Z" fill="#000000"></path>
<path d="M7.59833 12.4744C6.92997 12.4744 6.38623 11.9306 6.38623 11.2464C6.38623 10.5781 6.92997 10.0332 7.59833 10.0332C8.28254 10.0332 8.82628 10.5781 8.82628 11.2464C8.82628 11.9306 8.28254 12.4744 7.59833 12.4744Z" fill="#000000"></path>
</svg>