<?xml version="1.0" encoding="UTF-8"?>
<svg width="24" height="25" viewBox="0 0 24 25" fill="none" xmlns="http://www.w3.org/2000/svg">
<path opacity="0.4" fill-rule="evenodd" clip-rule="evenodd" d="M21 20.0959H20.68V10.3759C20.68 9.31383 19.8642 8.58873 18.8892 8.46476C18.7249 8.44385 18.59 8.58017 18.59 8.74586V20.0959H17.56V5.42586C17.56 4.64586 17.19 3.94586 16.61 3.50586C16.57 3.47586 16.53 3.44586 16.49 3.41586C16.24 3.22586 15.94 3.09586 15.62 3.05586C15.58 3.04586 15.53 3.03586 15.49 3.03586C15.43 3.02586 15.37 3.01586 15.31 3.02586C15.25 3.00586 15.19 3.00586 15.13 3.00586H8.87C8.74 3.00586 8.62 3.01586 8.5 3.03586C8.46 3.03586 8.42 3.04586 8.38 3.05586C8.06 3.10586 7.76 3.22586 7.51 3.41586C7.47 3.44586 7.43 3.47586 7.39 3.50586C6.81 3.94586 6.44 4.64586 6.44 5.42586V20.0959H5.41V8.74586C5.41 8.58017 5.27512 8.44385 5.11075 8.46476C4.1358 8.58873 3.32 9.31383 3.32 10.3759V20.0959H3C2.59 20.0959 2.25 20.4359 2.25 20.8459C2.25 21.2659 2.59 21.5959 3 21.5959H21C21.41 21.5959 21.75 21.2659 21.75 20.8459C21.75 20.4359 21.41 20.0959 21 20.0959Z" fill="#000000"></path>
<path d="M10.33 7.39605C10.38 7.39605 10.43 7.39605 10.48 7.38604C10.88 7.30605 11.14 6.90604 11.06 6.50604V6.49604C10.98 6.08604 10.59 5.82604 10.18 5.90604C9.77 5.98604 9.51 6.38604 9.59 6.79604C9.66001 7.15604 9.98 7.39605 10.33 7.39605Z" fill="#000000"></path>
<path d="M14.24 20.0959L20.962 20.0957C21.382 20.0957 21.712 20.4357 21.712 20.8457C21.712 21.2657 21.382 21.5957 20.962 21.5957L3 21.5961C2.59 21.5961 2.25 21.2661 2.25 20.8461C2.25 20.4361 2.59 20.0961 3 20.0961L9.76 20.096V17.446C9.76 16.986 10.15 16.596 10.61 16.596H13.39C13.86 16.596 14.24 16.986 14.24 17.446V20.0959Z" fill="#000000"></path>
<path d="M11.06 13.156V13.166C11.14 13.566 10.88 13.966 10.48 14.046C10.43 14.056 10.38 14.056 10.33 14.056C9.98 14.056 9.66001 13.816 9.59 13.456C9.51 13.046 9.77 12.646 10.18 12.566C10.59 12.486 10.98 12.746 11.06 13.156Z" fill="#000000"></path>
<path d="M10.33 10.756C10.37 10.756 10.42 10.756 10.47 10.746C10.87 10.666 11.14 10.276 11.06 9.86604V9.85604C10.98 9.45605 10.6 9.18605 10.19 9.26605C9.78 9.34605 9.51 9.74605 9.59 10.146C9.66 10.506 9.97 10.756 10.33 10.756Z" fill="#000000"></path>
<path d="M13.82 7.38604C13.77 7.39605 13.72 7.39605 13.67 7.39605C13.32 7.39605 13.01 7.15604 12.94 6.79604C12.86 6.38604 13.12 5.98604 13.53 5.90604C13.93 5.82604 14.33 6.08604 14.41 6.49604V6.50604C14.49 6.90604 14.23 7.30605 13.82 7.38604Z" fill="#000000"></path>
<path d="M14.41 13.166V13.156C14.33 12.746 13.93 12.486 13.53 12.566C13.12 12.646 12.86 13.046 12.94 13.456C13.01 13.816 13.32 14.056 13.67 14.056C13.72 14.056 13.77 14.056 13.82 14.046C14.23 13.966 14.49 13.566 14.41 13.166Z" fill="#000000"></path>
<path d="M13.82 10.746C13.77 10.756 13.72 10.756 13.67 10.756C13.32 10.756 13.01 10.506 12.94 10.146C12.86 9.74605 13.13 9.34605 13.53 9.26605C13.95 9.18605 14.33 9.45605 14.41 9.85604V9.86604C14.49 10.276 14.22 10.666 13.82 10.746Z" fill="#000000"></path>
</svg>