<?xml version="1.0" encoding="UTF-8"?>
<svg width="24" height="24" viewBox="0 0 24 24" fill="none" xmlns="http://www.w3.org/2000/svg">
<g opacity="0.4">
<path d="M12.2748 2.9969C12.3608 2.45134 12.8727 2.07874 13.4182 2.16467C14.0102 2.25791 14.5869 2.4043 15.1495 2.60229L15.1572 2.60503C20.3072 4.46526 22.9736 10.1477 21.1134 15.2977C19.2532 20.4476 13.5709 23.114 8.42104 21.2539C7.2492 20.831 6.20444 20.2072 5.31271 19.4388C4.8728 19.0703 4.47832 18.6671 4.12971 18.2302C3.78524 17.7985 3.85593 17.1693 4.28762 16.8248C4.71931 16.4803 5.34851 16.551 5.69299 16.9827C5.95772 17.3145 6.25985 17.6237 6.60175 17.9096L6.61361 17.9197C7.32606 18.5346 8.1611 19.0338 9.10007 19.3727C13.2112 20.8577 17.7474 18.7293 19.2324 14.6182C20.7169 10.5084 18.5902 5.97392 14.4817 4.48751C14.0336 4.33007 13.5762 4.21421 13.107 4.14031C12.5615 4.05438 12.1889 3.54246 12.2748 2.9969Z" fill="#000000"></path>
<path d="M2.85222 12.4272C3.3984 12.3453 3.90757 12.7216 3.9895 13.2678C4.07065 13.8088 4.22001 14.3417 4.41503 14.8506C4.61263 15.3664 4.35475 15.9446 3.83902 16.1422C3.3233 16.3398 2.74503 16.0819 2.54743 15.5662C2.30848 14.9426 2.1173 14.269 2.01163 13.5645C1.9297 13.0183 2.30605 12.5091 2.85222 12.4272Z" fill="#000000"></path>
<path d="M6.82407 5.82019C7.25006 5.46869 7.31046 4.83842 6.95897 4.41242C6.60747 3.98643 5.9772 3.92603 5.5512 4.27752C5.07526 4.67023 4.62206 5.11117 4.22593 5.59336C3.87535 6.02011 3.9371 6.65025 4.36385 7.00083C4.7906 7.35141 5.42074 7.28966 5.77132 6.86291C6.07381 6.4947 6.4321 6.14361 6.82407 5.82019Z" fill="#000000"></path>
<path d="M3.93826 7.68435C4.4482 7.89642 4.68968 8.48173 4.4776 8.99167C4.2552 9.52646 4.09687 10.0996 4.00432 10.6947C3.91944 11.2404 3.40824 11.614 2.86252 11.5292C2.31679 11.4443 1.9432 10.9331 2.02807 10.3874C2.14375 9.6436 2.34348 8.9149 2.63093 8.22369C2.843 7.71375 3.42831 7.47227 3.93826 7.68435Z" fill="#000000"></path>
<path d="M10.5814 4.14119C11.1274 4.05843 11.503 3.54868 11.4202 3.00263C11.3375 2.45658 10.8277 2.08101 10.2817 2.16377C9.58791 2.26892 8.90977 2.44866 8.26758 2.70575C7.75485 2.91102 7.50561 3.49306 7.71088 4.00578C7.91614 4.51851 8.49819 4.76775 9.01091 4.56248C9.50129 4.36616 10.0297 4.22481 10.5814 4.14119Z" fill="#000000"></path>
</g>
<path fill-rule="evenodd" clip-rule="evenodd" d="M21.8722 4.93732C22.142 5.41919 21.9702 6.02858 21.4883 6.29845C16.9571 8.83617 14.1158 12.9603 12.7586 15.5101C12.589 15.8287 12.2608 16.0312 11.8999 16.0399C11.539 16.0486 11.2015 15.8621 11.0167 15.552C10.1125 14.0342 8.96529 12.6829 7.5646 11.5008C7.14253 11.1446 7.08914 10.5137 7.44533 10.0917C7.80153 9.66959 8.43244 9.61619 8.85451 9.97239C9.9839 10.9255 10.971 11.9818 11.8163 13.1386C13.4772 10.4486 16.315 6.90346 20.511 4.55347C20.9929 4.28361 21.6023 4.45546 21.8722 4.93732Z" fill="#000000"></path>
</svg>