<?xml version="1.0" encoding="UTF-8"?>
<svg width="25" height="24" viewBox="0 0 25 24" fill="none" xmlns="http://www.w3.org/2000/svg">
<path opacity="0.4" d="M20.0264 12.2977C19.9664 12.8577 19.8564 13.4077 19.7164 13.9377C19.3164 15.3777 18.6364 16.6677 17.7064 17.6877C17.1064 18.3477 15.3564 19.9577 12.7564 19.9577C11.7864 19.9577 10.6964 19.7277 9.49639 19.1477C9.27639 19.0477 9.05641 18.9277 8.82641 18.7977C8.59641 18.6677 8.38639 18.5377 8.18639 18.3977C4.13639 15.6477 4.98638 11.7277 5.35638 10.5477C5.75638 9.2677 6.5064 8.0677 7.5064 7.0277C7.8964 6.6377 8.31641 6.2577 8.76641 5.9177C9.28641 5.5277 9.84639 5.1677 10.4364 4.8577C10.5864 4.7777 10.7464 4.6977 10.8964 4.6277C11.3664 4.3877 11.8264 4.1877 12.2864 4.0077C14.4264 3.1277 16.3464 2.7177 17.3364 2.5677C17.5964 2.5277 17.7964 2.5077 17.9164 2.4977C18.1364 2.4877 18.3064 2.5977 18.3964 2.7777C18.4464 2.8877 18.5264 3.0677 18.6264 3.3077C18.9964 4.2277 19.5964 6.0777 19.9064 8.3877C19.9764 8.8677 20.0364 9.3777 20.0664 9.8977C20.0764 10.0777 20.0864 10.2577 20.0964 10.4377C20.1264 11.0677 20.0964 11.6977 20.0264 12.2977Z" fill="#000000"></path>
<path d="M7.55627 21.7473C7.50121 21.7473 7.44616 21.7414 7.39269 21.7297C7.31982 21.7141 7.24975 21.6867 7.18627 21.6457C7.04882 21.5656 6.94641 21.4485 6.88391 21.3156C6.78283 21.1008 6.78649 20.843 6.91625 20.6262L9.80639 15.5969L7.62853 7.48188C7.55294 7.20023 7.62905 6.90151 7.84172 6.702C8.26308 6.30672 8.92979 6.52662 9.07945 7.08464L10.8663 13.7473L12.5564 10.8371L11.0615 5.24425C10.9653 4.88399 11.1446 4.49812 11.4843 4.34428C11.913 4.15013 12.3925 4.40509 12.5136 4.85981L13.6163 8.99729L17.3063 2.62619C17.5164 2.26682 17.9763 2.14572 18.3263 2.35666C18.6864 2.56565 18.8064 3.02658 18.5963 3.37619L14.9163 9.74729L19.0531 8.62035C19.5067 8.49678 19.967 8.78402 20.0145 9.25176C20.0519 9.61976 19.8113 9.96748 19.4545 10.0651L13.8563 11.5969L12.2263 14.4074L18.868 12.6113C19.4224 12.4614 19.9507 12.9201 19.8267 13.4809C19.7641 13.7643 19.5436 13.9834 19.2635 14.0591L11.1663 16.2473L8.20629 21.3762C8.0664 21.6164 7.81628 21.7571 7.55627 21.7473Z" fill="#000000"></path>
</svg>