<?xml version="1.0" encoding="UTF-8"?>
<svg width="25" height="24" viewBox="0 0 25 24" fill="none" xmlns="http://www.w3.org/2000/svg">
<path opacity="0.4" fill-rule="evenodd" clip-rule="evenodd" d="M16.65 7.28729C15.53 7.20729 14.3499 7.16747 13.1199 7.15747H11.6199C10.4099 7.16747 9.15 7.21729 7.85 7.28729H7.83C3.8 7.65729 2.5 9.48729 2.5 14.7873C2.5 22.3873 5.35 22.3873 12.25 22.3873C19.15 22.3873 22 22.3873 22 14.7873C22 9.48729 20.7 7.65729 16.65 7.28729Z" fill="#000000"></path>
<path fill-rule="evenodd" clip-rule="evenodd" d="M12.9998 12.5919L14.6388 10.9489C14.7848 10.8019 14.9778 10.7279 15.1698 10.7279C15.3608 10.7279 15.5528 10.8019 15.6988 10.9469C15.9928 11.2399 15.9928 11.7149 15.7008 12.0079L12.7808 14.9359C12.4998 15.2189 11.9998 15.2189 11.7188 14.9359L8.79883 12.0079C8.50683 11.7149 8.50683 11.2399 8.80083 10.9469C9.09483 10.6549 9.56883 10.6549 9.86083 10.9489L11.4998 12.5919V2.35508C11.4998 1.9434 11.8454 1.61283 12.257 1.61283C12.6689 1.61283 12.9998 1.94377 12.9998 2.35568V12.5919Z" fill="#000000"></path>
</svg>