<?xml version="1.0" encoding="UTF-8"?>
<svg width="24" height="24" viewBox="0 0 24 24" fill="none" xmlns="http://www.w3.org/2000/svg">
<path d="M9.30604 16.7414C9.0607 17.2714 8.94902 17.8509 8.99021 18.4158V18.6291C8.22215 18.8039 7.66097 18.7829 7.21423 18.641L6.39673 18.1631C6.13125 17.926 5.89964 17.6431 5.66253 17.3419L5.66185 17.3411C5.20159 16.7573 4.72563 16.1536 3.92775 15.955C3.5579 15.8607 3.18714 16.0868 3.09468 16.4549C3.00314 16.8219 3.22742 17.1945 3.59452 17.287C3.93782 17.3721 4.23717 17.7521 4.58321 18.1915L4.58713 18.1964C5.32306 19.1301 6.3995 20.4958 8.99204 20.027C8.99021 20.0462 8.99021 20.0663 8.99021 20.0855C8.99204 20.4636 9.29872 20.7685 9.6768 20.7685H9.67955L15.5943 20.741C15.9724 20.7392 16.2782 20.4325 16.2782 20.0544L16.2754 18.4698C16.323 17.8683 16.2141 17.2687 15.966 16.7267C13.1387 17.3441 10.348 16.9937 9.30604 16.7414Z" fill="#000000"></path>
<path opacity="0.4" d="M19.7449 6.96709C20.5093 7.90452 20.9259 9.06989 20.9259 10.2939C20.9259 14.8876 18.3443 16.2544 15.9659 16.7258C13.1386 17.3065 10.3479 16.9776 9.30598 16.7405C6.92763 16.2416 4.34238 14.8583 4.34238 10.3213C4.33506 9.09095 4.7525 7.91367 5.5224 6.96709C5.21756 5.87678 5.29171 4.72148 5.7412 3.67145C5.82084 3.48287 5.98196 3.34006 6.17878 3.28238C6.38751 3.22013 7.52176 2.99768 9.79849 4.45417C11.6614 3.99735 13.6086 3.99735 15.4697 4.45417C17.7437 2.99859 18.8798 3.21922 19.0894 3.28238C19.2854 3.34006 19.4465 3.48287 19.527 3.67145C19.9756 4.72148 20.0498 5.87678 19.7449 6.96709Z" fill="#000000"></path>
</svg>