<?xml version="1.0" encoding="UTF-8"?>
<svg width="24" height="24" viewBox="0 0 24 24" fill="none" xmlns="http://www.w3.org/2000/svg">
<path opacity="0.4" fill-rule="evenodd" clip-rule="evenodd" d="M4.33545 14.8186H19.6654C19.9454 14.8186 20.1654 14.5986 20.1654 14.3186V6.67855C20.1654 4.88855 18.8254 3.76855 16.6554 3.76855H7.34545C5.17545 3.76855 3.83545 4.88855 3.83545 6.67855V14.3186C3.83545 14.5986 4.05545 14.8186 4.33545 14.8186Z" fill="#000000"></path>
<path fill-rule="evenodd" clip-rule="evenodd" d="M11.4454 6.06836H12.7954C13.2154 6.06836 13.5454 6.39836 13.5454 6.81836C13.5454 7.22836 13.2154 7.56836 12.7954 7.56836H11.4454C11.0354 7.56836 10.6954 7.22836 10.6954 6.81836C10.6954 6.39836 11.0354 6.06836 11.4454 6.06836Z" fill="#000000"></path>
<path fill-rule="evenodd" clip-rule="evenodd" d="M20.949 16.2461H3.052C2.609 16.2461 2.25 16.6051 2.25 17.0461V17.5531C2.25 19.0301 3.452 20.2311 4.929 20.2311H19.071C20.549 20.2311 21.75 19.0301 21.75 17.5531V17.0461C21.75 16.6051 21.39 16.2461 20.949 16.2461Z" fill="#000000"></path>
</svg>