<?xml version="1.0" encoding="UTF-8"?>
<svg width="25" height="24" viewBox="0 0 25 24" fill="none" xmlns="http://www.w3.org/2000/svg">
<path opacity="0.4" fill-rule="evenodd" clip-rule="evenodd" d="M21.9821 11.7957C21.8621 11.6917 21.7001 11.6507 21.5441 11.6857C19.1861 12.2247 16.5391 11.0877 15.1431 9.69069C13.7001 8.24469 13.0521 5.83069 13.5301 3.68269C13.5651 3.52769 13.5241 3.36469 13.4191 3.24569C13.3151 3.12569 13.1591 3.06369 13.0011 3.07569C10.3521 3.29469 7.92413 4.77269 6.50713 7.02869C5.59006 8.48944 5.17038 10.1709 5.24072 11.887C5.2471 12.0425 5.42447 12.126 5.55749 12.0451C6.22677 11.6379 7.04008 11.3787 8.01313 11.3787C10.3685 11.3787 11.8211 12.857 12.4534 14.4084C12.4747 14.4607 12.5165 14.502 12.5688 14.5233C14.1482 15.165 15.1791 16.6765 15.1791 18.5687C15.1791 18.9216 15.134 19.2664 15.0521 19.5991C15.0167 19.7433 15.1366 19.8829 15.2824 19.8549C18.9517 19.1502 21.8469 16.0533 22.1531 12.2127C22.1661 12.0547 22.1031 11.8997 21.9821 11.7957Z" fill="#000000"></path>
<path fill-rule="evenodd" clip-rule="evenodd" d="M11.0226 16.1934C10.9131 16.1849 10.8248 16.0965 10.8142 15.9871C10.7202 15.0126 9.95078 13.375 8.01322 13.375C6.07472 13.375 5.30521 15.0126 5.2112 15.9871C5.20065 16.0965 5.11232 16.1849 5.00279 16.1934C3.79296 16.2869 2.84521 17.1514 2.84521 18.565C2.84521 19.525 3.41921 20.355 4.24421 20.735C4.59121 20.875 4.93721 20.925 5.19921 20.925H10.8222C11.0852 20.925 11.4312 20.875 11.7832 20.735C12.6082 20.365 13.1792 19.525 13.1792 18.565C13.1792 17.1514 12.2332 16.2868 11.0226 16.1934Z" fill="#000000"></path>
</svg>