<?xml version="1.0" encoding="UTF-8"?>
<svg width="24" height="25" viewBox="0 0 24 25" fill="none" xmlns="http://www.w3.org/2000/svg">
<path d="M15.5295 15.0615L17.8095 12.7815C18.1025 12.4885 18.1025 12.0135 17.8095 11.7205L15.5295 9.44045C15.2365 9.14745 14.7615 9.14745 14.4685 9.44045C14.313 9.59599 14.24 9.80253 14.2496 10.0059H14.2472V11.5005H10.5415V13.0005H14.2472V14.6133H14.2533C14.2712 14.777 14.343 14.9359 14.4685 15.0615C14.6155 15.2075 14.8075 15.2815 14.9995 15.2815C15.1915 15.2815 15.3835 15.2075 15.5295 15.0615Z" fill="#000000"></path>
<g opacity="0.4">
<path d="M15.4795 3.40039H17.2805C19.6785 3.40039 21.6295 5.35239 21.6295 7.75039V16.7504C21.6295 19.1494 19.6785 21.1004 17.2805 21.1004H15.4795C15.0655 21.1004 14.7295 20.7644 14.7295 20.3504C14.7295 19.9364 15.0655 19.6004 15.4795 19.6004H17.2805C18.8515 19.6004 20.1295 18.3224 20.1295 16.7504V7.75039C20.1295 6.17839 18.8515 4.90039 17.2805 4.90039H15.4795C15.0655 4.90039 14.7295 4.56439 14.7295 4.15039C14.7295 3.73639 15.0655 3.40039 15.4795 3.40039Z" fill="#000000"></path>
<path d="M10.5415 17.8514V13.0004V6.65039C10.5415 4.99639 9.19548 3.65039 7.54148 3.65039H5.37048C3.71648 3.65039 2.37048 4.99639 2.37048 6.65039V17.8514C2.37048 19.5054 3.71648 20.8514 5.37048 20.8514H7.54148C9.19548 20.8514 10.5415 19.5054 10.5415 17.8514Z" fill="#000000"></path>
</g>
</svg>