<?xml version="1.0" encoding="UTF-8"?>
<svg width="25" height="24" viewBox="0 0 25 24" fill="none" xmlns="http://www.w3.org/2000/svg">
<circle opacity="0.4" cx="13.2551" cy="12" r="7.33786" fill="#000000"></circle>
<path d="M22.1424 6.47403C21.4993 5.35338 19.7842 5.1195 17.1823 5.81139C17.7085 6.13297 18.186 6.5325 18.6051 6.99051C20.0278 6.74689 20.7392 6.95153 20.8853 7.2049C20.9925 7.39979 20.9341 8.03321 20.0181 9.15387C19.8914 9.32927 19.7355 9.51442 19.5503 9.70932C18.264 11.1028 16.315 12.584 14.0737 13.8801C11.8324 15.1762 9.58134 16.1214 7.72007 16.5405C7.65186 16.5502 7.59339 16.5697 7.52518 16.5794C5.73213 16.9497 5.02075 16.6574 4.88433 16.4333C4.72841 16.1604 4.97203 15.2931 6.19013 13.9678C6.03422 13.4221 5.94651 12.8569 5.92702 12.2625C5.81009 12.2917 5.70289 12.3599 5.61519 12.4476C3.65648 14.3966 2.96459 16.0337 3.62724 17.1641C3.92933 17.6903 4.59198 18.2166 6.04396 18.2166C6.58967 18.2166 7.25232 18.1386 8.04165 17.9632C8.27553 17.9145 8.5094 17.856 8.75303 17.7878C10.5948 17.2811 12.7094 16.3553 14.8046 15.1469C17.1044 13.8216 19.1118 12.3014 20.4956 10.83C20.5345 10.7813 20.5833 10.7423 20.6222 10.6935C22.6394 8.51071 22.5615 7.19515 22.1424 6.47403Z" fill="#000000"></path>
</svg>