<?xml version="1.0" encoding="UTF-8"?>
<svg width="25" height="24" viewBox="0 0 25 24" fill="none" xmlns="http://www.w3.org/2000/svg">
<path opacity="0.4" fill-rule="evenodd" clip-rule="evenodd" d="M10.9625 9.74409C10.7296 9.21901 10.5061 8.66677 10.3234 8.12726C10.0657 7.3666 9.87472 6.59087 9.87472 5.93919C9.87472 5.13597 10.1941 4.36584 10.7613 3.79748L10.762 3.79675C11.3304 3.22956 12.1005 2.91016 12.9038 2.91016C13.707 2.91016 14.4771 3.22956 15.0455 3.79676L15.0462 3.79748C15.6134 4.36584 15.9328 5.13597 15.9328 5.93919C15.9328 6.59086 15.7411 7.37012 15.4829 8.13403C15.2991 8.67766 15.0744 9.23417 14.8404 9.76212C14.9378 9.82632 15.0318 9.89518 15.1221 9.96839C15.5489 9.58062 16.0054 9.19127 16.4626 8.84472C17.1059 8.35716 17.786 7.92663 18.4064 7.72258C19.1695 7.471 20.0003 7.53268 20.7172 7.8939C21.4359 8.25558 21.9787 8.88866 22.2302 9.65016C22.4821 10.4127 22.4202 11.2438 22.0591 11.9614C21.6977 12.6782 21.0659 13.2227 20.3038 13.4744C19.6836 13.6789 18.8806 13.7375 18.0734 13.7284C17.4991 13.722 16.8998 13.6808 16.3256 13.6232C16.2981 13.7292 16.2659 13.8333 16.2291 13.9352C16.7145 14.1806 17.2078 14.4495 17.6662 14.7325C18.3529 15.1566 18.9998 15.6356 19.4139 16.1406C19.9236 16.7607 20.166 17.5589 20.0877 18.3576C20.0096 19.1583 19.6149 19.8932 18.9955 20.4024C18.3751 20.9123 17.5777 21.1544 16.7782 21.0764C15.9792 20.998 15.2435 20.6051 14.7338 19.9851C14.3194 19.4805 13.9751 18.7527 13.6924 17.9966C13.4843 17.4402 13.3013 16.8455 13.1443 16.2714C13.0596 16.2774 12.974 16.2805 12.8877 16.2805C12.7902 16.2805 12.6937 16.2766 12.5982 16.2689C12.4411 16.8437 12.2579 17.4394 12.0495 17.9966C11.7668 18.7527 11.4227 19.4803 11.0082 19.9849C10.4985 20.605 9.76298 20.998 8.96403 21.0764C8.1645 21.1543 7.36675 20.9123 6.74637 20.4024C6.12695 19.8932 5.73235 19.1586 5.6542 18.3579C5.57589 17.5592 5.81833 16.7607 6.328 16.1406C6.7421 15.6356 7.38896 15.1566 8.07572 14.7325C8.543 14.444 9.04664 14.1702 9.54111 13.9209C9.50633 13.8232 9.4757 13.7236 9.44944 13.6222C8.87234 13.6803 8.26963 13.7219 7.69214 13.7284C6.88496 13.7375 6.08218 13.679 5.46204 13.4745C4.6999 13.2228 4.06801 12.6785 3.70667 11.9616C3.34555 11.2441 3.28347 10.4127 3.53533 9.65017C3.7868 8.88877 4.32957 8.25575 5.04811 7.89405C5.76482 7.53288 6.597 7.47096 7.35924 7.7226C7.97961 7.92666 8.65971 8.35718 9.30295 8.84472C9.76181 9.19251 10.22 9.58341 10.648 9.97257C10.7484 9.89089 10.8534 9.81459 10.9625 9.74409Z" fill="#000000"></path>
<path fill-rule="evenodd" clip-rule="evenodd" d="M10.8362 12.729C10.8362 11.596 11.7547 10.6775 12.8877 10.6775C14.0207 10.6775 14.9393 11.596 14.9393 12.729C14.9393 13.862 14.0207 14.7806 12.8877 14.7806C11.7547 14.7806 10.8362 13.862 10.8362 12.729Z" fill="#000000"></path>
</svg>