<?xml version="1.0" encoding="UTF-8"?>
<svg width="25" height="24" viewBox="0 0 25 24" fill="none" xmlns="http://www.w3.org/2000/svg">
<path opacity="0.4" d="M18.5712 4.64541C18.3948 4.53304 18.1451 4.55551 17.993 4.69841C16.5345 6.09306 15.4072 7.80023 14.5612 9.61807C13.651 11.5703 13.0518 13.6485 12.5883 15.7445C12.0379 13.6265 11.2819 11.539 10.116 9.67108C9.3433 8.42992 8.38898 7.29605 7.26975 6.34664C7.13226 6.23003 6.92752 6.19907 6.76261 6.27413C6.56001 6.35724 6.43323 6.58961 6.47906 6.8029C6.56387 7.16757 6.63925 7.53436 6.70136 7.9037C7.0089 9.73087 7.11384 11.5975 6.9408 13.4441C6.24262 12.3735 5.41466 11.3825 4.45477 10.5319C4.44143 10.5201 4.42803 10.508 4.41453 10.4958C4.28798 10.3818 4.15227 10.2595 3.97076 10.2626C3.67607 10.2486 3.42035 10.5412 3.48289 10.8278C3.91036 12.513 4.28943 14.2125 4.54986 15.932C4.66594 16.7296 4.7636 17.5323 4.76659 18.3396H6.60199C6.92752 17.6934 7.18623 17.0158 7.38883 16.3229C7.67667 16.9781 7.92082 17.6519 8.11742 18.3396L17.0044 18.3392C17.2378 17.6383 17.5801 16.9751 18.002 16.367C18.1973 17.04 18.4355 17.7015 18.7284 18.3396H20.3355C20.3531 16.959 20.6572 15.6004 21.0183 14.2727C21.1652 13.7439 21.3275 13.219 21.5074 12.7004C21.6102 12.3985 21.3382 12.0605 21.02 12.0847C20.845 12.0867 20.7174 12.2006 20.5938 12.3109C20.5617 12.3396 20.5298 12.3681 20.4974 12.3942C19.8168 12.9819 19.1461 13.5828 18.5241 14.2316C18.2898 12.8026 18.2213 11.3507 18.2603 9.90472C18.3087 8.29678 18.4796 6.69095 18.7995 5.11354C18.827 4.93078 18.731 4.73912 18.5712 4.64541Z" fill="#000000"></path>
<path d="M12.0517 4.41017C11.9407 4.26558 11.745 4.18967 11.5651 4.22911C11.3175 4.2749 11.1346 4.53145 11.1826 4.77781C11.3869 6.10971 11.3552 7.47128 11.1488 8.80148C11.1248 8.92912 11.1475 9.06523 11.225 9.17209C11.4267 9.46427 11.6295 9.75563 11.8323 10.047C11.9206 10.1739 12.0089 10.3007 12.0971 10.4277C12.2054 10.5935 12.4256 10.6757 12.6179 10.6244C12.8282 10.5748 12.9931 10.373 12.9867 10.1567C12.9799 9.23739 12.9328 8.31766 12.8402 7.40259C12.7721 6.76187 12.6856 6.12073 12.5263 5.49485C12.4235 5.11407 12.3018 4.72396 12.0517 4.41017Z" fill="#000000"></path>
<path d="M4.76661 18.3405L4.24084 18.3403L3.71506 18.3401C3.39425 18.3362 3.09741 18.5784 3.02288 18.8841C2.93636 19.2025 3.10212 19.5655 3.40324 19.7076C3.54663 19.787 3.71164 19.7849 3.87157 19.7828H3.87158C3.89175 19.7826 3.91184 19.7823 3.9318 19.7822C7.73911 19.7819 11.5464 19.782 15.3536 19.7821L21.0641 19.7822C21.0974 19.7816 21.1309 19.7821 21.1646 19.7826L21.1647 19.7826C21.2867 19.7844 21.4101 19.7861 21.5246 19.7389C21.818 19.6338 22.0232 19.3268 21.9979 19.0172C21.9846 18.6691 21.6814 18.3579 21.328 18.3422C21.1296 18.3391 20.931 18.3397 20.7325 18.3403L20.7325 18.3403C20.6002 18.3407 20.4678 18.3412 20.3355 18.3405H4.76661Z" fill="#000000"></path>
</svg>