<?xml version="1.0" encoding="UTF-8"?>
<svg width="24" height="24" viewBox="0 0 24 24" fill="none" xmlns="http://www.w3.org/2000/svg">
<g opacity="0.4">
<path fill-rule="evenodd" clip-rule="evenodd" d="M6.07607 7.14051C6.22206 7.28651 6.41506 7.35951 6.60606 7.35951C6.79906 7.35951 6.99007 7.28651 7.13706 7.14051C7.43007 6.84651 7.43007 6.37151 7.13706 6.07851L6.16606 5.10951C5.87306 4.81651 5.39806 4.81751 5.10506 5.10951C4.81206 5.40351 4.81206 5.87751 5.10506 6.17051L6.07607 7.14051Z" fill="#000000"></path>
<path fill-rule="evenodd" clip-rule="evenodd" d="M12 5.12C12.414 5.12 12.75 4.784 12.75 4.37V3C12.75 2.586 12.414 2.25 12 2.25C11.586 2.25 11.25 2.586 11.25 3V4.37C11.25 4.784 11.586 5.12 12 5.12Z" fill="#000000"></path>
<path fill-rule="evenodd" clip-rule="evenodd" d="M5.122 11.9999C5.122 11.5859 4.786 11.2499 4.372 11.2499H3C2.586 11.2499 2.25 11.5859 2.25 11.9999C2.25 12.4139 2.586 12.7499 3 12.7499H4.372C4.786 12.7499 5.122 12.4139 5.122 11.9999Z" fill="#000000"></path>
<path fill-rule="evenodd" clip-rule="evenodd" d="M17.3935 7.35976C17.5845 7.35976 17.7775 7.28676 17.9235 7.14076L18.8945 6.17076C19.1875 5.87776 19.1875 5.40276 18.8945 5.10976C18.6015 4.81776 18.1265 4.81676 17.8335 5.10976L16.8635 6.07876C16.5705 6.37176 16.5705 6.84676 16.8635 7.13976C17.0095 7.28676 17.2015 7.35976 17.3935 7.35976Z" fill="#000000"></path>
<path fill-rule="evenodd" clip-rule="evenodd" d="M17.9238 16.8593C17.6298 16.5673 17.1548 16.5673 16.8628 16.8593C16.5698 17.1533 16.5698 17.6283 16.8628 17.9213L17.8338 18.8903C17.9808 19.0363 18.1728 19.1093 18.3638 19.1093C18.5568 19.1093 18.7478 19.0363 18.8948 18.8903C19.1878 18.5963 19.1878 18.1223 18.8948 17.8293L17.9238 16.8593Z" fill="#000000"></path>
<path fill-rule="evenodd" clip-rule="evenodd" d="M6.07607 16.8593L5.10506 17.8293C4.81206 18.1223 4.81206 18.5963 5.10506 18.8903C5.25206 19.0363 5.44306 19.1093 5.63607 19.1093C5.82706 19.1093 6.01906 19.0363 6.16606 18.8903L7.13706 17.9213C7.43007 17.6283 7.43007 17.1533 7.13706 16.8593C6.84507 16.5673 6.37007 16.5673 6.07607 16.8593Z" fill="#000000"></path>
<path fill-rule="evenodd" clip-rule="evenodd" d="M21 11.2499H19.628C19.214 11.2499 18.878 11.5859 18.878 11.9999C18.878 12.4139 19.214 12.7499 19.628 12.7499H21C21.414 12.7499 21.75 12.4139 21.75 11.9999C21.75 11.5859 21.414 11.2499 21 11.2499Z" fill="#000000"></path>
<path fill-rule="evenodd" clip-rule="evenodd" d="M12 18.8798C11.586 18.8798 11.25 19.2158 11.25 19.6298V20.9998C11.25 21.4138 11.586 21.7498 12 21.7498C12.414 21.7498 12.75 21.4138 12.75 20.9998V19.6298C12.75 19.2158 12.414 18.8798 12 18.8798Z" fill="#000000"></path>
</g>
<path fill-rule="evenodd" clip-rule="evenodd" d="M11.9999 7.30078C9.41093 7.30078 7.30493 9.40878 7.30493 12.0008C7.30493 14.5928 9.41093 16.7008 11.9999 16.7008C14.5899 16.7008 16.6959 14.5928 16.6959 12.0008C16.6959 9.40878 14.5899 7.30078 11.9999 7.30078Z" fill="#000000"></path>
</svg>