<?xml version="1.0" encoding="UTF-8"?>
<svg width="24" height="24" viewBox="0 0 24 24" fill="none" xmlns="http://www.w3.org/2000/svg">
<path opacity="0.4" fill-rule="evenodd" clip-rule="evenodd" d="M19.8535 9.094H16.8895C15.1235 9.085 13.6655 7.622 13.6655 5.838V2.698C13.6655 2.455 13.4725 2.25 13.2215 2.25H8.06649C5.66249 2.25 3.71249 4.229 3.71249 6.647V17.158C3.71249 19.693 5.75949 21.75 8.26949 21.75H15.9435C18.3475 21.75 20.2875 19.79 20.2875 17.372V9.533C20.2875 9.289 20.0945 9.094 19.8535 9.094Z" fill="#000000"></path>
<path fill-rule="evenodd" clip-rule="evenodd" d="M13.537 12.7531C13.243 13.0451 12.768 13.0451 12.476 12.7511L11.457 11.7271V15.8361C11.457 16.2511 11.121 16.5861 10.707 16.5861C10.293 16.5861 9.957 16.2511 9.957 15.8361V11.7291L8.939 12.7511C8.647 13.0451 8.173 13.0451 7.879 12.7531C7.585 12.4611 7.584 11.9861 7.877 11.6921L10.153 9.40611C10.29 9.25611 10.488 9.16211 10.707 9.16211C10.906 9.16211 11.099 9.24211 11.239 9.38311L13.539 11.6921C13.831 11.9861 13.83 12.4611 13.537 12.7531Z" fill="#000000"></path>
<path fill-rule="evenodd" clip-rule="evenodd" d="M17.0158 7.67175C17.6888 7.67875 18.6238 7.68175 19.4168 7.67875C19.8228 7.67775 20.0288 7.18775 19.7478 6.89175C19.2388 6.35775 18.5298 5.61275 17.8178 4.86475C17.1028 4.11375 16.3848 3.35975 15.8628 2.81175C15.5738 2.50875 15.0698 2.71675 15.0698 3.13675V5.70575C15.0698 6.78375 15.9488 7.67175 17.0158 7.67175Z" fill="#000000"></path>
</svg>