<?xml version="1.0" encoding="UTF-8"?>
<svg width="25" height="24" viewBox="0 0 25 24" fill="none" xmlns="http://www.w3.org/2000/svg">
<g opacity="0.4">
<path d="M20.9736 2.62891C21.1736 2.62891 21.3635 2.72891 21.4535 2.90891L21.4435 2.91891C21.6135 3.26891 22.2735 4.97891 22.3635 7.06891C22.4335 8.61891 21.9536 10.0789 21.0436 11.0689C20.7036 11.4389 19.7235 12.3489 18.2535 12.3489C17.6035 12.3489 16.8735 12.1689 16.0535 11.6989C14.2535 10.6589 13.5235 8.91891 14.1135 7.05891C14.5135 5.77891 15.5336 4.62891 16.9136 3.90891C18.7736 2.92891 20.5936 2.64891 20.9736 2.62891Z" fill="#000000"></path>
<path d="M3.7635 7.3496C4.1335 7.2396 5.93349 6.8696 8.00349 7.1396L8.0135 7.1496C9.5535 7.3496 10.9135 8.0696 11.7335 9.1296C12.9235 10.6696 12.8435 12.5496 11.5135 14.1496C10.4835 15.3796 9.3735 15.7296 8.4535 15.7296C7.6035 15.7296 6.92347 15.4396 6.61347 15.2796C5.41347 14.6596 4.4635 13.4596 3.9835 11.9796C3.3435 9.9896 3.37349 8.1496 3.41349 7.7696C3.43349 7.5696 3.5735 7.4096 3.7635 7.3496Z" fill="#000000"></path>
</g>
<path d="M13.2333 20.71C13.2733 21.0889 13.6033 21.3701 13.9733 21.3701H14.0733C14.4833 21.3194 14.7733 20.9405 14.7233 20.5303C13.8134 13.3389 17.7934 9.81936 17.9633 9.66897C18.2733 9.39944 18.3134 8.91897 18.0434 8.61037C17.7733 8.29006 17.2934 8.24905 16.9833 8.52053C16.8472 8.64162 14.456 10.7256 13.4876 14.8526C12.0418 12.6182 9.6852 11.6592 9.55337 11.6084C9.16335 11.46 8.73342 11.6494 8.58339 12.0283C8.47793 12.2959 8.54043 12.5928 8.71877 12.7979C8.79421 12.8838 8.8904 12.9541 9.00332 12.999C9.04336 13.0088 12.6734 14.499 13.0734 17.9795C13.0768 18.0127 13.0816 18.042 13.0889 18.0733C13.0718 18.8975 13.1148 19.7764 13.2333 20.71Z" fill="#000000"></path>
</svg>